<svg width="292" height="44" viewBox="0 0 292 44" fill="none" xmlns="http://www.w3.org/2000/svg">
<path d="M1.198 15.128V9.8H21.502V15.128H14.41V35H8.29V15.128H1.198ZM30.0658 35H23.9458V9.8H30.0658V35ZM37.961 9.8L47.933 26.072L57.905 9.8H62.009V35H56.105V22.796L47.933 35.36L39.761 22.796V35H33.857V9.8H37.961ZM86.7005 27.944C86.7005 31.832 83.1725 35 78.0965 35H65.6045V9.8H77.5925C81.3005 9.8 84.6485 12.356 84.6485 16.208C84.6485 18.584 83.2805 20.672 80.9765 21.644C84.5765 22.328 86.7005 24.344 86.7005 27.944ZM80.5805 27.296C80.5805 25.604 79.1405 24.524 77.1605 24.524H71.6525V30.14H77.3405C79.2485 30.14 80.5805 28.88 80.5805 27.296ZM71.6525 19.736H75.8285C77.6285 19.736 78.6725 18.656 78.6725 17.108C78.6725 15.704 77.4845 14.66 75.6485 14.66H71.6525V19.736ZM94.9642 29.672H106.592V35H88.8442V9.8H106.448V15.128H94.9642V19.556H106.124V24.884H94.9642V29.672ZM123.995 35L117.947 28.34H115.427V35H109.307V9.8H121.583C126.911 9.8 130.871 13.832 130.871 19.088C130.871 23.012 128.675 26.18 125.399 27.584L132.239 35H123.995ZM115.427 23.084H120.719C122.987 23.084 124.751 21.536 124.751 19.088C124.751 16.64 122.987 15.056 120.719 15.056H115.427V23.084ZM145.937 28.484H140.213V35H134.093V9.8H145.937C151.265 9.8 155.225 13.904 155.225 19.16C155.225 24.416 151.265 28.484 145.937 28.484ZM140.213 23.228H145.073C147.341 23.228 149.105 21.608 149.105 19.16C149.105 16.712 147.341 15.056 145.073 15.056H140.213V23.228ZM171.88 35L165.832 28.34H163.312V35H157.192V9.8H169.468C174.796 9.8 178.756 13.832 178.756 19.088C178.756 23.012 176.56 26.18 173.284 27.584L180.124 35H171.88ZM163.312 23.084H168.604C170.872 23.084 172.636 21.536 172.636 19.088C172.636 16.64 170.872 15.056 168.604 15.056H163.312V23.084ZM194.115 9.296C202.359 9.296 207.543 15.164 207.543 22.4C207.543 29.636 202.359 35.504 194.115 35.504C185.871 35.504 180.723 29.636 180.723 22.4C180.723 15.164 185.871 9.296 194.115 9.296ZM194.115 30.248C198.939 30.248 201.423 26.396 201.423 22.4C201.423 18.368 198.939 14.552 194.115 14.552C189.291 14.552 186.843 18.368 186.843 22.4C186.843 26.396 189.291 30.248 194.115 30.248Z" fill="#273618"/>
<path d="M226.805 34.384C225.248 34.384 223.808 33.9787 222.485 33.168C221.163 32.336 220.107 31.1627 219.317 29.648C218.528 28.112 218.133 26.3093 218.133 24.24C218.133 22.96 218.304 21.744 218.645 20.592C219.008 19.44 219.456 18.416 219.989 17.52C220.544 16.6027 221.099 15.8773 221.653 15.344C222.208 14.7893 222.688 14.48 223.093 14.416C223.477 13.2427 224.096 12.1867 224.949 11.248C225.803 10.3093 226.827 9.57333 228.021 9.04C229.216 8.48533 230.539 8.208 231.989 8.208C233.291 8.208 234.443 8.67733 235.445 9.616C236.448 10.5333 237.237 11.8027 237.813 13.424C238.411 15.024 238.709 16.848 238.709 18.896C238.709 21.1787 238.357 23.28 237.653 25.2C236.949 27.0987 236.021 28.7307 234.869 30.096C236.277 31.6533 237.76 33.0827 239.317 34.384C240.875 35.7067 242.315 36.7733 243.637 37.584C243.957 37.776 244.213 37.9787 244.405 38.192C244.597 38.4053 244.693 38.6933 244.693 39.056C244.693 39.5253 244.501 39.8667 244.117 40.08C243.733 40.2933 243.253 40.4 242.677 40.4C242.037 40.4 241.131 40.0907 239.957 39.472C238.784 38.8533 237.483 37.968 236.053 36.816C234.645 35.6853 233.248 34.3413 231.861 32.784C230.197 33.8507 228.512 34.384 226.805 34.384ZM229.205 29.424C228.608 28.5707 228.075 27.7173 227.605 26.864C227.456 26.608 227.339 26.3733 227.253 26.16C227.189 25.9467 227.157 25.6907 227.157 25.392C227.157 24.816 227.317 24.3787 227.637 24.08C227.979 23.76 228.448 23.6 229.045 23.6C229.536 23.6 229.92 23.7173 230.197 23.952C230.496 24.1653 230.752 24.4853 230.965 24.912C231.285 25.4667 231.648 26.0213 232.053 26.576C232.779 25.3813 233.312 24.0053 233.653 22.448C233.995 20.8693 234.165 19.3013 234.165 17.744C234.165 16.336 234.123 15.2373 234.037 14.448C233.973 13.6587 233.845 13.104 233.653 12.784C233.461 12.464 233.184 12.304 232.821 12.304C231.84 12.304 230.869 12.464 229.909 12.784C228.971 13.0827 228.192 13.6053 227.573 14.352C226.976 15.0773 226.677 16.0693 226.677 17.328C226.677 18.032 226.507 18.5973 226.165 19.024C225.824 19.4507 225.312 19.664 224.629 19.664C224.267 19.664 223.947 19.5893 223.669 19.44C223.243 20.272 222.923 21.2 222.709 22.224C222.517 23.2267 222.421 24.1547 222.421 25.008C222.421 26.6507 222.752 27.92 223.413 28.816C224.075 29.6907 225.024 30.128 226.261 30.128C227.328 30.128 228.309 29.8933 229.205 29.424ZM255.476 35.44C254.985 35.44 254.537 35.2373 254.132 34.832C253.748 34.448 253.556 33.7973 253.556 32.88C253.556 32.1973 253.609 31.248 253.716 30.032C253.844 28.7947 254.079 27.2053 254.42 25.264C253.673 26.8 252.895 28.1653 252.084 29.36C251.273 30.5547 250.473 31.4933 249.684 32.176C248.916 32.8373 248.18 33.168 247.476 33.168C246.345 33.168 245.449 32.8267 244.788 32.144C244.127 31.44 243.796 30.128 243.796 28.208C243.796 27.2907 243.871 26.256 244.02 25.104C244.191 23.952 244.404 22.8 244.66 21.648C244.916 20.496 245.172 19.472 245.428 18.576C245.705 17.6587 245.951 16.976 246.164 16.528C246.335 16.144 246.548 15.8453 246.804 15.632C247.081 15.4187 247.433 15.312 247.86 15.312C248.543 15.312 249.065 15.536 249.428 15.984C249.791 16.432 249.972 16.8907 249.972 17.36C249.972 17.7227 249.887 18.2453 249.716 18.928C249.567 19.6107 249.375 20.368 249.14 21.2C248.927 22.032 248.703 22.8853 248.468 23.76C248.233 24.6347 248.031 25.456 247.86 26.224C247.711 26.992 247.636 27.6427 247.636 28.176C247.636 28.8373 247.892 29.168 248.404 29.168C248.703 29.168 249.087 28.88 249.556 28.304C250.047 27.728 250.559 26.96 251.092 26C251.647 25.0187 252.201 23.952 252.756 22.8C253.332 21.6267 253.855 20.4427 254.324 19.248C254.815 18.032 255.231 16.912 255.572 15.888C255.785 15.248 256.073 14.8 256.436 14.544C256.799 14.288 257.215 14.16 257.684 14.16C258.409 14.16 258.964 14.3627 259.348 14.768C259.753 15.1733 259.956 15.7493 259.956 16.496C259.956 16.8373 259.903 17.4133 259.796 18.224C259.689 19.0347 259.551 19.984 259.38 21.072C259.231 22.16 259.049 23.312 258.836 24.528C258.623 25.744 258.409 26.9387 258.196 28.112C258.004 29.2853 257.812 30.3627 257.62 31.344C257.428 32.304 257.268 33.072 257.14 33.648C256.927 34.5013 256.671 35.0133 256.372 35.184C256.073 35.3547 255.775 35.44 255.476 35.44ZM264.434 34.48C263.836 34.48 263.303 34.2773 262.834 33.872C262.386 33.4667 262.162 32.8053 262.162 31.888C262.162 31.3973 262.226 30.704 262.354 29.808C262.503 28.912 262.695 27.9413 262.93 26.896C263.164 25.8293 263.42 24.7733 263.698 23.728C263.996 22.6827 264.284 21.7547 264.562 20.944C264.839 20.112 265.084 19.4933 265.298 19.088C265.575 18.5973 265.831 18.2987 266.066 18.192C266.322 18.064 266.567 18 266.802 18C267.228 18 267.623 18.128 267.986 18.384C268.37 18.64 268.562 19.2053 268.562 20.08C268.562 20.4213 268.498 20.976 268.37 21.744C268.242 22.4907 268.082 23.3653 267.89 24.368C267.698 25.3707 267.484 26.4053 267.25 27.472C267.036 28.5387 266.823 29.552 266.61 30.512C266.418 31.4507 266.258 32.24 266.13 32.88C266.023 33.4133 265.799 33.808 265.458 34.064C265.138 34.3413 264.796 34.48 264.434 34.48ZM268.114 14.832C267.41 14.832 266.759 14.6293 266.162 14.224C265.564 13.7973 265.266 13.1467 265.266 12.272C265.266 11.5467 265.447 10.96 265.81 10.512C266.172 10.064 266.599 9.744 267.09 9.552C267.602 9.33867 268.05 9.232 268.434 9.232C268.818 9.232 269.244 9.31733 269.714 9.488C270.183 9.63733 270.588 9.92533 270.93 10.352C271.292 10.7573 271.474 11.344 271.474 12.112C271.474 12.624 271.292 13.0933 270.93 13.52C270.567 13.9253 270.119 14.2453 269.586 14.48C269.074 14.7147 268.583 14.832 268.114 14.832ZM285.272 34.8C285.059 34.8 284.653 34.7893 284.056 34.768C283.459 34.7467 282.744 34.7147 281.912 34.672C281.08 34.6293 280.216 34.5867 279.32 34.544C278.445 34.5013 277.613 34.4693 276.824 34.448C276.035 34.4267 275.395 34.416 274.904 34.416C274.136 34.416 273.496 34.1813 272.984 33.712C272.493 33.2213 272.248 32.5387 272.248 31.664C272.248 31.152 272.525 30.48 273.08 29.648C273.656 28.7947 274.403 27.856 275.32 26.832C276.237 25.7867 277.229 24.7307 278.296 23.664C279.384 22.5973 280.461 21.5947 281.528 20.656C282.616 19.696 283.576 18.8747 284.408 18.192C283 18.384 281.645 18.608 280.344 18.864C279.043 19.12 277.912 19.344 276.952 19.536C276.013 19.728 275.373 19.824 275.032 19.824C274.413 19.824 273.923 19.6533 273.56 19.312C273.197 18.9493 273.016 18.4693 273.016 17.872C273.016 17.616 273.283 17.3493 273.816 17.072C274.349 16.7733 275.075 16.496 275.992 16.24C276.909 15.984 277.944 15.7493 279.096 15.536C280.269 15.3227 281.485 15.1627 282.744 15.056C284.024 14.928 285.283 14.864 286.52 14.864C287.117 14.864 287.619 15.0133 288.024 15.312C288.451 15.5893 288.771 15.952 288.984 16.4C289.219 16.8267 289.336 17.264 289.336 17.712C289.336 17.8827 289.101 18.2347 288.632 18.768C288.163 19.3013 287.544 19.9627 286.776 20.752C286.008 21.52 285.155 22.3627 284.216 23.28C283.277 24.176 282.339 25.0933 281.4 26.032C280.483 26.9493 279.629 27.824 278.84 28.656C278.051 29.488 277.411 30.2133 276.92 30.832C277.752 30.8107 278.691 30.7787 279.736 30.736C280.781 30.6933 281.795 30.6507 282.776 30.608C283.757 30.5653 284.611 30.5333 285.336 30.512C286.061 30.4907 286.52 30.48 286.712 30.48C287.395 30.48 287.885 30.64 288.184 30.96C288.483 31.28 288.632 31.6533 288.632 32.08C288.632 32.72 288.323 33.3387 287.704 33.936C287.107 34.512 286.296 34.8 285.272 34.8Z" fill="#BC6C25"/>
</svg>
